<svg xmlns="http://www.w3.org/2000/svg" fill="none" viewBox="0 0 48 48" id="Facebook-Logo-2--Streamline-Core.svg" height="48" width="48"><desc>Facebook Logo 2 Streamline Icon: https://streamlinehq.com</desc><g id="facebook-2--media-facebook-social"><path id="Vector" fill="#fff" d="M30.856868571428567 8.507485714285714c-1.7142857142857142 0 -3.4285714285714284 0 -3.4285714285714284 3.4346742857142853v4.01856h3.8742857142857137c1.3821599999999998 0 2.6057142857142854 1.2257142857142855 2.6057142857142854 2.610342857142857v3.228582857142857c0 1.3845942857142857 -1.2235542857142858 2.610342857142857 -2.6057142857142854 2.610342857142857h-3.8742857142857137L27.42685714285714 46.285714285714285c-0.00006857142857142857 0.9469714285714286 -0.7675885714285714 1.7142857142857142 -1.7142857142857142 1.7142857142857142H19.611154285714285c-0.9467657142857142 0 -1.7142857142857142 -0.7676571428571428 -1.7142857142857142 -1.7142857142857142V24.40998857142857h-3.565714285714286c-1.3821599999999998 0 -2.6057142857142854 -1.2257485714285714 -2.6057142857142854 -2.610342857142857v-3.228582857142857c0 -1.3846285714285713 1.2235542857142858 -2.610342857142857 2.6057142857142854 -2.610342857142857h3.565714285714286c0 -4.472879999999999 -0.7694742857142857 -9.232731428571428 2.525725714285714 -12.813534857142855 2.85504 -3.1025153142857143 6.582 -3.209547771428571 10.408525714285714 -3.132032982857143 0.7172914285714286 0.014530079999999999 1.443462857142857 0.015916422857142856 2.1568457142857143 0.04531069714285714 1.3844914285714285 0.057040799999999996 2.5320342857142855 1.2023005714285715 2.5316914285714285 2.6081142857142856V5.897142857142857c0.0192 1.4256 -1.178742857142857 2.629542857142857 -2.605645714285714 2.610342857142857h-2.057142857142857Z" stroke-width="1"></path></g></svg>