<svg xmlns="http://www.w3.org/2000/svg" fill="none" viewBox="0 0 14 14" id="Instagram-Logo--Streamline-Core.svg" height="14" width="14"><desc>Instagram Logo Streamline Icon: https://streamlinehq.com</desc><g id="instagram"><path id="Subtract" fill="none" fill-rule="evenodd" stroke="#fff" d="M3.57144 0.5C1.87513 0.5 0.5 1.87512 0.5 3.57143v6.85717C0.5 12.1249 1.87514 13.5 3.57144 13.5h6.85716c1.6963 0 3.0715 -1.3751 3.0715 -3.0714V3.57143C13.5001 1.87512 12.1249 0.5 10.4286 0.5H3.57144ZM10.46 4.15613c-0.4143 0 -0.75004 -0.33579 -0.75004 -0.75 0 -0.41422 0.33574 -0.75 0.75004 -0.75 0.4142 0 0.75 0.33578 0.75 0.75 0 0.41421 -0.3358 0.75 -0.75 0.75Zm-3.46023 0.04431c-1.54616 0 -2.79957 1.25341 -2.79957 2.79957 0 1.54617 1.25341 2.79958 2.79957 2.79958 1.54616 0 2.79958 -1.25341 2.79958 -2.79958 0 -1.54616 -1.25342 -2.79957 -2.79958 -2.79957Z" clip-rule="evenodd" stroke-width="1"></path></g></svg>