<?xml version="1.0" encoding="UTF-8" standalone="no" ?>
<!DOCTYPE svg PUBLIC "-//W3C//DTD SVG 1.1//EN" "http://www.w3.org/Graphics/SVG/1.1/DTD/svg11.dtd">
<svg xmlns="http://www.w3.org/2000/svg" xmlns:xlink="http://www.w3.org/1999/xlink" version="1.1" width="400" height="400" viewBox="0 0 400 400" xml:space="preserve">
<desc>Created with Fabric.js 3.6.2</desc>
<defs>
</defs>
<g transform="matrix(0.02 0 0 0.02 200 200)" id="Layer_x0020_1"  >
<rect style="stroke: none; stroke-width: 1; stroke-dasharray: none; stroke-linecap: butt; stroke-dashoffset: 0; stroke-linejoin: miter; stroke-miterlimit: 4; fill: none; fill-rule: evenodd; opacity: 1;"  x="-5213" y="-5213" rx="0" ry="0" width="10426" height="10426" />
</g>
<g transform="matrix(0.02 0 0 0.02 200 200.01)" id="Layer_x0020_1"  >
<path style="stroke: none; stroke-width: 1; stroke-dasharray: none; stroke-linecap: butt; stroke-dashoffset: 0; stroke-linejoin: miter; stroke-miterlimit: 4; fill: rgb(255,255,255); fill-rule: nonzero; opacity: 1;"  transform=" translate(-5213, -5213.4)" d="M 3632 5672 c 77 32 147 1 169 -84 c 16 -59 52 -208 69 -270 c 23 -85 14 -115 -49 -188 c -135 -160 -222 -368 -222 -661 c 0 -852 637 -1614 1659 -1614 c 905 0 1402 553 1402 1291 c 0 972 -430 1792 -1068 1792 c -353 0 -616 -292 -532 -649 c 102 -427 298 -888 298 -1196 c 0 -276 -148 -506 -455 -506 c -360 0 -650 373 -650 872 c 0 318 108 534 108 534 c 0 0 -369 1562 -434 1836 c -129 545 -19 1213 -10 1281 c 6 40 57 49 80 19 c 34 -43 463 -573 609 -1103 c 41 -150 237 -926 237 -926 c 117 223 459 420 823 420 c 1083 0 1818 -988 1818 -2310 c 0 -999 -846 -1930 -2133 -1930 c -1601 0 -2409 1148 -2409 2105 c 0 580 220 1095 690 1287 z" stroke-linecap="round" />
</g>
</svg>