<svg xmlns="http://www.w3.org/2000/svg" fill="none" viewBox="0 0 14 14" id="Pinterest-Logo--Streamline-Core.svg" height="14" width="14"><desc>Pinterest Logo Streamline Icon: https://streamlinehq.com</desc><g id="pinterest"><path id="Union" fill="#fff" fill-rule="evenodd" d="M3.71338 5.28555c0 -1.81497 1.47132 -3.28628 3.28628 -3.28628 1.81496 0 3.28624 1.47131 3.28624 3.28628 0 0.98665 -0.3176 1.89921 -0.81985 2.50822 -0.48147 0.58379 -1.12018 0.88818 -1.90977 0.78628 -0.32603 -0.04208 -0.60384 -0.22206 -0.83603 -0.56293l0.75413 -2.97988c0.1355 -0.5354 -0.18869 -1.07928 -0.72409 -1.21478 -0.53541 -0.13549 -1.07928 0.18869 -1.21478 0.7241L3.45802 12.7555c-0.1355 0.5354 0.18869 1.0793 0.7241 1.2148 0.5354 0.1355 1.07927 -0.1887 1.21477 -0.7241l0.77425 -3.0593c0.32506 0.1869 0.69973 0.3213 1.12915 0.3767 1.55818 0.2011 2.84831 -0.454 3.70871 -1.49732 0.8396 -1.01808 1.2769 -2.40015 1.2769 -3.78073 0 -2.91954 -2.36671 -5.286282422 -5.28624 -5.286282422 -2.91953 0 -5.28628 2.366742422 -5.28628 5.286282422 0 0.74997 0.15678 1.46596 0.4403 2.11488 0.22112 0.50609 0.81064 0.7371 1.31673 0.51598 0.50608 -0.22112 0.7371 -0.81064 0.51598 -1.31673 -0.17527 -0.40115 -0.27301 -0.84491 -0.27301 -1.31413Z" clip-rule="evenodd" stroke-width="1"></path></g></svg>